<svg width="429" height="100" viewBox="0 0 429 100" fill="none" xmlns="http://www.w3.org/2000/svg">
<path d="M132.274 46.45C130.074 46.45 128.091 46.0167 126.324 45.15C124.591 44.2833 123.224 42.9333 122.224 41.1C121.257 39.2333 120.774 36.8833 120.774 34.05V18.9H130.274V32.5C130.274 34.6 130.657 36.1 131.424 37C132.224 37.9 133.341 38.35 134.774 38.35C135.707 38.35 136.557 38.1333 137.324 37.7C138.091 37.2667 138.707 36.5833 139.174 35.65C139.641 34.6833 139.874 33.45 139.874 31.95V18.9H149.374V46H140.324V38.35L142.074 40.5C141.141 42.5 139.791 44 138.024 45C136.257 45.9667 134.341 46.45 132.274 46.45ZM173.143 18.45C175.243 18.45 177.143 18.8833 178.843 19.75C180.543 20.5833 181.876 21.8833 182.843 23.65C183.843 25.4167 184.343 27.7 184.343 30.5V46H174.843V32.05C174.843 30.1167 174.443 28.7167 173.643 27.85C172.876 26.95 171.793 26.5 170.393 26.5C169.393 26.5 168.476 26.7333 167.643 27.2C166.81 27.6333 166.16 28.3167 165.693 29.25C165.226 30.1833 164.993 31.4 164.993 32.9V46H155.493V18.9H164.543V26.6L162.793 24.35C163.826 22.3833 165.243 20.9167 167.043 19.95C168.843 18.95 170.876 18.45 173.143 18.45ZM190.308 46V18.9H199.808V46H190.308ZM195.058 15.9C193.324 15.9 191.924 15.4167 190.858 14.45C189.791 13.4833 189.258 12.2833 189.258 10.85C189.258 9.41666 189.791 8.21666 190.858 7.25C191.924 6.28333 193.324 5.8 195.058 5.8C196.791 5.8 198.191 6.26667 199.258 7.2C200.324 8.1 200.858 9.26667 200.858 10.7C200.858 12.2 200.324 13.45 199.258 14.45C198.224 15.4167 196.824 15.9 195.058 15.9ZM202.831 46L215.281 29.65L215.081 35.05L203.131 18.9H213.831L220.531 28.45L216.531 28.65L223.631 18.9H233.681L221.731 34.7V29.5L234.031 46H223.181L216.181 35.8L220.181 36.35L213.131 46H202.831ZM134.124 99.15C131.524 99.15 129.041 98.85 126.674 98.25C124.341 97.65 122.341 96.7667 120.674 95.6L124.124 88.95C125.257 89.85 126.657 90.55 128.324 91.05C130.024 91.5833 131.674 91.85 133.274 91.85C135.841 91.85 137.691 91.2833 138.824 90.15C139.957 89.05 140.524 87.4333 140.524 85.3V82.1L141.024 74.5L140.974 66.85V61.9H150.024V84.05C150.024 89.1833 148.641 92.9833 145.874 95.45C143.107 97.9167 139.191 99.15 134.124 99.15ZM132.474 87.6C130.074 87.6 127.857 87.0667 125.824 86C123.824 84.9 122.207 83.3833 120.974 81.45C119.774 79.4833 119.174 77.1667 119.174 74.5C119.174 71.8333 119.774 69.5333 120.974 67.6C122.207 65.6333 123.824 64.1167 125.824 63.05C127.857 61.9833 130.074 61.45 132.474 61.45C134.774 61.45 136.741 61.9167 138.374 62.85C140.007 63.75 141.241 65.1667 142.074 67.1C142.941 69.0333 143.374 71.5 143.374 74.5C143.374 77.5 142.941 79.9667 142.074 81.9C141.241 83.8333 140.007 85.2667 138.374 86.2C136.741 87.1333 134.774 87.6 132.474 87.6ZM134.724 80.05C135.857 80.05 136.857 79.8167 137.724 79.35C138.624 78.8833 139.324 78.2333 139.824 77.4C140.357 76.5667 140.624 75.6 140.624 74.5C140.624 73.4 140.357 72.4333 139.824 71.6C139.324 70.7667 138.624 70.1333 137.724 69.7C136.857 69.2333 135.857 69 134.724 69C133.591 69 132.574 69.2333 131.674 69.7C130.774 70.1333 130.057 70.7667 129.524 71.6C129.024 72.4333 128.774 73.4 128.774 74.5C128.774 75.6 129.024 76.5667 129.524 77.4C130.057 78.2333 130.774 78.8833 131.674 79.35C132.574 79.8167 133.591 80.05 134.724 80.05ZM172.678 89V83.95L172.028 82.7V73.4C172.028 71.9 171.561 70.75 170.628 69.95C169.728 69.1167 168.278 68.7 166.278 68.7C164.978 68.7 163.661 68.9167 162.328 69.35C160.995 69.75 159.861 70.3167 158.928 71.05L155.728 64.6C157.261 63.6 159.095 62.8333 161.228 62.3C163.395 61.7333 165.545 61.45 167.678 61.45C172.078 61.45 175.478 62.4667 177.878 64.5C180.311 66.5 181.528 69.65 181.528 73.95V89H172.678ZM164.678 89.45C162.511 89.45 160.678 89.0833 159.178 88.35C157.678 87.6167 156.528 86.6167 155.728 85.35C154.961 84.0833 154.578 82.6667 154.578 81.1C154.578 79.4333 154.995 78 155.828 76.8C156.695 75.5667 158.011 74.6333 159.778 74C161.545 73.3333 163.828 73 166.628 73H173.028V77.95H167.928C166.395 77.95 165.311 78.2 164.678 78.7C164.078 79.2 163.778 79.8667 163.778 80.7C163.778 81.5333 164.095 82.2 164.728 82.7C165.361 83.2 166.228 83.45 167.328 83.45C168.361 83.45 169.295 83.2 170.128 82.7C170.995 82.1667 171.628 81.3667 172.028 80.3L173.328 83.8C172.828 85.6667 171.845 87.0833 170.378 88.05C168.945 88.9833 167.045 89.45 164.678 89.45ZM222.824 61.45C224.924 61.45 226.791 61.8833 228.424 62.75C230.091 63.5833 231.391 64.8833 232.324 66.65C233.291 68.4167 233.774 70.7 233.774 73.5V89H224.274V75.05C224.274 73.1167 223.908 71.7167 223.174 70.85C222.441 69.95 221.441 69.5 220.174 69.5C219.274 69.5 218.458 69.7167 217.724 70.15C216.991 70.5833 216.424 71.25 216.024 72.15C215.624 73.0167 215.424 74.15 215.424 75.55V89H205.924V75.05C205.924 73.1167 205.558 71.7167 204.824 70.85C204.124 69.95 203.124 69.5 201.824 69.5C200.891 69.5 200.058 69.7167 199.324 70.15C198.624 70.5833 198.058 71.25 197.624 72.15C197.224 73.0167 197.024 74.15 197.024 75.55V89H187.524V61.9H196.574V69.45L194.774 67.3C195.774 65.3667 197.141 63.9167 198.874 62.95C200.608 61.95 202.541 61.45 204.674 61.45C207.108 61.45 209.241 62.0833 211.074 63.35C212.941 64.5833 214.191 66.5167 214.824 69.15L211.724 68.5C212.691 66.3 214.141 64.5833 216.074 63.35C218.041 62.0833 220.291 61.45 222.824 61.45ZM239.77 89V61.9H249.27V89H239.77ZM244.52 58.9C242.787 58.9 241.387 58.4167 240.32 57.45C239.254 56.4833 238.72 55.2833 238.72 53.85C238.72 52.4167 239.254 51.2167 240.32 50.25C241.387 49.2833 242.787 48.8 244.52 48.8C246.254 48.8 247.654 49.2667 248.72 50.2C249.787 51.1 250.32 52.2667 250.32 53.7C250.32 55.2 249.787 56.45 248.72 57.45C247.687 58.4167 246.287 58.9 244.52 58.9ZM273.094 61.45C275.194 61.45 277.094 61.8833 278.794 62.75C280.494 63.5833 281.828 64.8833 282.794 66.65C283.794 68.4167 284.294 70.7 284.294 73.5V89H274.794V75.05C274.794 73.1167 274.394 71.7167 273.594 70.85C272.828 69.95 271.744 69.5 270.344 69.5C269.344 69.5 268.428 69.7333 267.594 70.2C266.761 70.6333 266.111 71.3167 265.644 72.25C265.178 73.1833 264.944 74.4 264.944 75.9V89H255.444V61.9H264.494V69.6L262.744 67.35C263.778 65.3833 265.194 63.9167 266.994 62.95C268.794 61.95 270.828 61.45 273.094 61.45ZM303.851 99.15C301.251 99.15 298.767 98.85 296.401 98.25C294.067 97.65 292.067 96.7667 290.401 95.6L293.851 88.95C294.984 89.85 296.384 90.55 298.051 91.05C299.751 91.5833 301.401 91.85 303.001 91.85C305.567 91.85 307.417 91.2833 308.551 90.15C309.684 89.05 310.251 87.4333 310.251 85.3V82.1L310.751 74.5L310.701 66.85V61.9H319.751V84.05C319.751 89.1833 318.367 92.9833 315.601 95.45C312.834 97.9167 308.917 99.15 303.851 99.15ZM302.201 87.6C299.801 87.6 297.584 87.0667 295.551 86C293.551 84.9 291.934 83.3833 290.701 81.45C289.501 79.4833 288.901 77.1667 288.901 74.5C288.901 71.8333 289.501 69.5333 290.701 67.6C291.934 65.6333 293.551 64.1167 295.551 63.05C297.584 61.9833 299.801 61.45 302.201 61.45C304.501 61.45 306.467 61.9167 308.101 62.85C309.734 63.75 310.967 65.1667 311.801 67.1C312.667 69.0333 313.101 71.5 313.101 74.5C313.101 77.5 312.667 79.9667 311.801 81.9C310.967 83.8333 309.734 85.2667 308.101 86.2C306.467 87.1333 304.501 87.6 302.201 87.6ZM304.451 80.05C305.584 80.05 306.584 79.8167 307.451 79.35C308.351 78.8833 309.051 78.2333 309.551 77.4C310.084 76.5667 310.351 75.6 310.351 74.5C310.351 73.4 310.084 72.4333 309.551 71.6C309.051 70.7667 308.351 70.1333 307.451 69.7C306.584 69.2333 305.584 69 304.451 69C303.317 69 302.301 69.2333 301.401 69.7C300.501 70.1333 299.784 70.7667 299.251 71.6C298.751 72.4333 298.501 73.4 298.501 74.5C298.501 75.6 298.751 76.5667 299.251 77.4C299.784 78.2333 300.501 78.8833 301.401 79.35C302.301 79.8167 303.317 80.05 304.451 80.05Z" fill="white"/>
<ellipse cx="50.3521" cy="50" rx="50.3521" ry="50" fill="url(#paint0_linear_2_821)"/>
<path d="M51.8753 69.7C46.7087 69.7 42.6753 68.2833 39.7753 65.45C36.8753 62.6167 35.4253 58.6 35.4253 53.4V34H45.3253V53.1C45.3253 56.1 45.9087 58.25 47.0753 59.55C48.2753 60.85 49.9087 61.5 51.9753 61.5C54.042 61.5 55.6587 60.85 56.8253 59.55C57.992 58.25 58.5753 56.1 58.5753 53.1V34H68.3253V53.4C68.3253 58.6 66.8753 62.6167 63.9753 65.45C61.0753 68.2833 57.042 69.7 51.8753 69.7Z" fill="white"/>
<defs>
<linearGradient id="paint0_linear_2_821" x1="50.3521" y1="0" x2="50.3521" y2="100" gradientUnits="userSpaceOnUse">
<stop stop-color="#F20493"/>
<stop offset="1" stop-color="#9616C4"/>
</linearGradient>
</defs>
</svg>
