<svg width="46" height="46" viewBox="0 0 46 46" fill="none" xmlns="http://www.w3.org/2000/svg">
<g clip-path="url(#clip0_2_832)">
<path d="M13.4742 0.161223C11.027 0.276683 9.35585 0.667223 7.89489 1.2413C6.38287 1.83056 5.10131 2.6213 3.82619 3.90102C2.55107 5.18074 1.76586 6.46322 1.18074 7.97754C0.614475 9.44172 0.230835 11.1143 0.122735 13.5629C0.0146352 16.0114 -0.00928477 16.7985 0.00267522 23.0444C0.0146352 29.2903 0.0422352 30.0732 0.160915 32.5268C0.277755 34.9736 0.666915 36.6443 1.241 38.1057C1.83118 39.6177 2.62099 40.8988 3.90117 42.1744C5.18135 43.45 6.46291 44.2334 7.98091 44.8194C9.44371 45.3847 11.1167 45.7702 13.5649 45.8774C16.013 45.9846 16.801 46.0094 23.045 45.9975C29.289 45.9855 30.0752 45.9579 32.5284 45.8415C34.9815 45.7251 36.6435 45.3332 38.1054 44.7619C39.6174 44.1703 40.8994 43.3819 42.1741 42.1013C43.4488 40.8206 44.2335 39.5372 44.8182 38.022C45.3849 36.5592 45.7699 34.8862 45.8762 32.4399C45.9833 29.9849 46.0087 29.201 45.9967 22.9561C45.9847 16.7111 45.9567 15.9282 45.8403 13.4755C45.7239 11.0227 45.3343 9.35708 44.7607 7.89474C44.1696 6.38272 43.3807 5.10254 42.101 3.82604C40.8212 2.54954 39.5369 1.76524 38.0221 1.18196C36.5584 0.615703 34.8863 0.229763 32.4382 0.123963C29.9901 0.0181627 29.2021 -0.00897728 22.9558 0.00298272C16.7094 0.0149427 15.9274 0.0416227 13.4742 0.161223ZM13.7429 41.7397C11.5004 41.6422 10.2828 41.2696 9.47131 40.9577C8.39675 40.5437 7.63131 40.0432 6.82263 39.2424C6.01396 38.4415 5.51715 37.6733 5.09763 36.601C4.78253 35.7896 4.40303 34.5734 4.29815 32.3309C4.18407 29.9071 4.16015 29.1794 4.14681 23.0389C4.13347 16.8983 4.15693 16.1715 4.2632 13.7469C4.35887 11.5062 4.73377 10.2872 5.04519 9.47622C5.45919 8.40028 5.95783 7.63622 6.76053 6.828C7.56323 6.01978 8.32913 5.52206 9.40231 5.10254C10.2128 4.78606 11.4291 4.40978 13.6707 4.30306C16.0962 4.18806 16.823 4.16506 22.9627 4.15172C29.1023 4.13838 29.8309 4.16138 32.2574 4.2681C34.4981 4.36562 35.7175 4.73684 36.5276 5.0501C37.6026 5.4641 38.3676 5.96136 39.1758 6.76544C39.984 7.56952 40.4822 8.33266 40.9017 9.40814C41.2187 10.2164 41.595 11.4321 41.7007 13.6751C41.8162 16.1007 41.8424 16.8279 41.8535 22.9671C41.8645 29.1063 41.8429 29.8354 41.7366 32.2591C41.6387 34.5016 41.267 35.7197 40.9546 36.532C40.5406 37.6061 40.0415 38.372 39.2384 39.1798C38.4352 39.9876 37.6702 40.4853 36.5966 40.9048C35.787 41.2208 34.5694 41.598 32.3296 41.7047C29.9041 41.8188 29.1773 41.8427 23.0353 41.8561C16.8934 41.8694 16.1689 41.8446 13.7433 41.7397M32.4929 10.7076C32.4938 11.2536 32.6566 11.7869 32.9607 12.2403C33.2648 12.6937 33.6965 13.0468 34.2012 13.2548C34.7059 13.4628 35.261 13.5165 35.7962 13.409C36.3315 13.3016 36.8228 13.0378 37.2081 12.6511C37.5934 12.2643 37.8554 11.772 37.9609 11.2364C38.0664 10.7008 38.0107 10.1459 37.8008 9.64195C37.5909 9.13799 37.2363 8.70759 36.7818 8.40518C36.3273 8.10278 35.7933 7.94195 35.2474 7.94304C34.5156 7.94451 33.8143 8.23657 33.2977 8.755C32.7812 9.27344 32.4917 9.9758 32.4929 10.7076ZM11.1903 23.0232C11.2032 29.546 16.5006 34.8218 23.022 34.8093C29.5434 34.7969 34.8228 29.5 34.8104 22.9772C34.798 16.4544 29.4993 11.1773 22.9769 11.1902C16.4546 11.2031 11.1779 16.5013 11.1903 23.0232ZM15.3331 23.0149C15.3301 21.4986 15.7768 20.0154 16.6168 18.7529C17.4567 17.4905 18.6521 16.5054 20.0519 15.9224C21.4517 15.3393 22.9929 15.1844 24.4807 15.4773C25.9685 15.7702 27.3361 16.4977 28.4104 17.5678C29.4848 18.6379 30.2177 20.0025 30.5164 21.4892C30.8152 22.9758 30.6664 24.5176 30.0889 25.9197C29.5114 27.3218 28.5311 28.5211 27.272 29.3661C26.0128 30.211 24.5314 30.6636 23.0151 30.6666C22.0082 30.6687 21.0108 30.4725 20.0798 30.089C19.1488 29.7056 18.3025 29.1426 17.5891 28.432C16.8757 27.7215 16.3093 26.8774 15.9223 25.9479C15.5352 25.0184 15.335 24.0218 15.3331 23.0149Z" fill="url(#paint0_linear_2_832)"/>
</g>
<defs>
<linearGradient id="paint0_linear_2_832" x1="22.9996" y1="0.000366211" x2="22.9996" y2="46.0002" gradientUnits="userSpaceOnUse">
<stop stop-color="#F20493"/>
<stop offset="1" stop-color="#9616C4"/>
</linearGradient>
<clipPath id="clip0_2_832">
<rect width="46" height="46" fill="white"/>
</clipPath>
</defs>
</svg>
