<svg width="25" height="25" viewBox="0 0 25 25" fill="none" xmlns="http://www.w3.org/2000/svg">
<g clip-path="url(#clip0_2_814)">
<path d="M7.69417 24.9286C7.05959 24.9286 6.51687 24.6989 6.06599 24.2393C5.61511 23.7804 5.38967 23.2337 5.38967 22.5991V13.3059L3.56109 8.89732H1.38184V6.8934H4.91374L6.56697 10.9012H21.3709C21.755 10.9012 22.0472 11.0599 22.2476 11.3772C22.448 11.6944 22.4563 12.0201 22.2726 12.3541L19.4171 17.94C20.2687 18.0736 20.9828 18.466 21.5593 19.1173C22.135 19.7686 22.4229 20.5367 22.4229 21.4218C22.4229 22.3903 22.0849 23.217 21.409 23.9016C20.7323 24.5863 19.9097 24.9286 18.9411 24.9286C17.9559 24.9286 17.1253 24.5863 16.4493 23.9016C15.7726 23.217 15.4343 22.3903 15.4343 21.4218C15.4343 21.0878 15.476 20.7789 15.5595 20.495C15.643 20.2111 15.7599 19.9355 15.9102 19.6684L12.6288 19.3678L9.62294 23.8766C9.40585 24.2106 9.12597 24.4694 8.7833 24.6531C8.44129 24.8368 8.07825 24.9286 7.69417 24.9286ZM7.71922 22.8997C7.75261 22.8997 7.82776 22.8579 7.94466 22.7744L10.3744 19.1674C9.55614 19.0839 8.91322 18.8875 8.44564 18.5782C7.97806 18.2696 7.62737 17.9483 7.39358 17.6143V22.6241C7.39358 22.7076 7.42698 22.7744 7.49378 22.8245C7.56057 22.8746 7.63572 22.8997 7.71922 22.8997ZM18.9161 22.9247C19.3503 22.9247 19.7093 22.7784 19.9932 22.4859C20.2771 22.194 20.419 21.8393 20.419 21.4218C20.419 20.9876 20.2771 20.6286 19.9932 20.3447C19.7093 20.0608 19.3503 19.9188 18.9161 19.9188C18.4986 19.9188 18.1439 20.0608 17.852 20.3447C17.5594 20.6286 17.4132 20.9876 17.4132 21.4218C17.4132 21.8393 17.5594 22.194 17.852 22.4859C18.1439 22.7784 18.4986 22.9247 18.9161 22.9247Z" fill="url(#paint0_linear_2_814)"/>
</g>
<defs>
<linearGradient id="paint0_linear_2_814" x1="5.17303" y1="21.3216" x2="22.4641" y2="21.1868" gradientUnits="userSpaceOnUse">
<stop stop-color="#9616C4"/>
<stop offset="1" stop-color="#F20493"/>
</linearGradient>
<clipPath id="clip0_2_814">
<rect width="24.047" height="24.047" fill="white" transform="translate(0.379883 0.881683)"/>
</clipPath>
</defs>
</svg>
