<svg width="46" height="46" viewBox="0 0 46 46" fill="none" xmlns="http://www.w3.org/2000/svg">
<g clip-path="url(#clip0_2_828)">
<path fill-rule="evenodd" clip-rule="evenodd" d="M39.0286 6.68852C34.7418 2.37158 29.026 0 22.9394 0C10.4062 0 0.196343 10.2295 0.185435 22.7869C0.185435 26.8087 1.2326 30.7213 3.21784 34.1858L0 46L12.0642 42.8306C15.3911 44.6448 19.1325 45.6066 22.9394 45.6066H22.9503C35.4835 45.6066 45.6933 35.377 45.7042 22.8087C45.6933 16.7213 43.3263 10.9945 39.0286 6.68852ZM22.9394 41.7486C19.5361 41.7486 16.2092 40.8306 13.3077 39.1038L12.6205 38.6885L5.46487 40.5683L7.37376 33.5738L6.92654 32.8525C5.02856 29.8361 4.03594 26.3497 4.03594 22.776C4.03594 12.3497 12.5223 3.84699 22.9503 3.84699C28.0007 3.84699 32.7456 5.82514 36.3234 9.39891C39.8903 12.9836 41.8537 17.7377 41.8537 22.7978C41.8428 33.2568 33.3565 41.7486 22.9394 41.7486ZM33.3128 27.5628C32.7456 27.2787 29.9532 25.9016 29.4296 25.7049C28.906 25.5191 28.5242 25.4208 28.1534 25.9891C27.7716 26.5574 26.6808 27.847 26.3536 28.2186C26.0263 28.6011 25.6882 28.6448 25.121 28.3607C24.5538 28.0765 22.7212 27.4754 20.5505 25.5301C18.8598 24.0219 17.7254 22.153 17.3872 21.5847C17.06 21.0164 17.3545 20.7104 17.6381 20.4262C17.889 20.1749 18.2053 19.7596 18.4889 19.4317C18.7726 19.1038 18.8707 18.8634 19.0562 18.4809C19.2416 18.0984 19.1543 17.7705 19.0125 17.4863C18.8707 17.2022 17.7363 14.3934 17.2564 13.2568C16.7982 12.1421 16.3292 12.2951 15.9801 12.2842C15.6529 12.2623 15.2711 12.2623 14.8893 12.2623C14.5076 12.2623 13.8967 12.4044 13.3731 12.9727C12.8495 13.541 11.3879 14.918 11.3879 17.7268C11.3879 20.5355 13.4277 23.235 13.7113 23.6175C13.9949 24 17.7145 29.7486 23.4193 32.2186C24.7719 32.8087 25.83 33.1585 26.659 33.4208C28.0225 33.8579 29.2551 33.7923 30.2368 33.6503C31.3276 33.4863 33.5964 32.2732 34.0764 30.9399C34.5454 29.6066 34.5454 28.4699 34.4036 28.2295C34.2618 27.9891 33.88 27.847 33.3128 27.5628Z" fill="url(#paint0_linear_2_828)"/>
</g>
<defs>
<linearGradient id="paint0_linear_2_828" x1="22.8521" y1="0" x2="22.8521" y2="46" gradientUnits="userSpaceOnUse">
<stop stop-color="#F20493"/>
<stop offset="1" stop-color="#9616C4"/>
</linearGradient>
<clipPath id="clip0_2_828">
<rect width="45.6933" height="46" fill="white"/>
</clipPath>
</defs>
</svg>
